<svg width="38" height="38" viewBox="0 0 38 38" fill="none" xmlns="http://www.w3.org/2000/svg">
<path fill-rule="evenodd" clip-rule="evenodd" d="M28.298 19.2159C28.298 18.5423 28.2376 17.8946 28.1253 17.2727H19.178V20.9475H24.2907C24.0705 22.135 23.4012 23.1412 22.3951 23.8148V26.1984H25.4653C27.2617 24.5446 28.298 22.1091 28.298 19.2159Z" fill="#4285F4"/>
<path fill-rule="evenodd" clip-rule="evenodd" d="M19.1776 28.5C21.7427 28.5 23.8931 27.6493 25.4649 26.1984L22.3947 23.8147C21.544 24.3847 20.4558 24.7216 19.1776 24.7216C16.7033 24.7216 14.609 23.0504 13.862 20.805H10.6881V23.2663C12.2513 26.3711 15.464 28.5 19.1776 28.5Z" fill="#34A853"/>
<path fill-rule="evenodd" clip-rule="evenodd" d="M13.8623 20.805C13.6723 20.235 13.5644 19.6261 13.5644 19C13.5644 18.3738 13.6723 17.765 13.8623 17.195V14.7336H10.6885C10.0451 16.0161 9.67801 17.467 9.67801 19C9.67801 20.5329 10.0451 21.9838 10.6885 23.2663L13.8623 20.805Z" fill="#FBBC05"/>
<path fill-rule="evenodd" clip-rule="evenodd" d="M19.1776 13.2784C20.5724 13.2784 21.8247 13.7577 22.8092 14.6991L25.534 11.9743C23.8888 10.4414 21.7383 9.5 19.1776 9.5C15.464 9.5 12.2513 11.6289 10.6881 14.7336L13.8619 17.195C14.609 14.9496 16.7033 13.2784 19.1776 13.2784Z" fill="#EA4335"/>
</svg>
